<?xml version="1.0" standalone="no"?>
<!DOCTYPE svg PUBLIC "-//W3C//DTD SVG 20010904//EN"
 "http://www.w3.org/TR/2001/REC-SVG-20010904/DTD/svg10.dtd">
<svg version="1.0" xmlns="http://www.w3.org/2000/svg"
 width="1200.000000pt" height="800.000000pt" viewBox="0 0 1200.000000 800.000000"
 preserveAspectRatio="xMidYMid meet">

<g transform="translate(0.000000,800.000000) scale(0.100000,-0.100000)"
fill="#000000" stroke="none">
<path d="M9034 6170 c-101 -11 -226 -37 -314 -66 -116 -38 -286 -127 -382
-199 -86 -65 -206 -189 -265 -276 -132 -192 -215 -488 -244 -874 -10 -130 -7
-420 4 -431 2 -2 246 10 543 26 296 17 542 30 547 30 4 0 7 112 7 248 0 293 7
329 74 397 44 44 133 85 184 85 82 0 168 -58 206 -140 19 -41 21 -66 24 -308
l3 -263 52 6 c29 3 268 26 531 50 264 25 481 47 483 49 3 2 10 71 15 152 37
502 -103 963 -375 1242 -93 94 -146 125 -292 172 -285 90 -565 125 -801 100z"/>
<path d="M2070 6163 c-282 -16 -543 -138 -771 -363 -115 -114 -232 -268 -277
-366 -44 -96 -79 -241 -93 -380 -22 -227 28 -511 136 -766 l15 -38 168 0 c92
0 387 -3 655 -7 l488 -6 -91 139 c-50 76 -111 180 -136 229 -38 76 -45 102
-51 170 -11 150 42 250 161 306 65 31 149 39 200 19 l26 -10 0 -172 c0 -156 3
-186 30 -303 31 -133 72 -269 96 -317 32 -62 -16 -58 684 -58 l638 0 -87 143
c-148 238 -185 328 -184 438 0 83 32 156 95 220 l46 46 309 6 c169 4 354 7
411 7 l102 0 0 -426 0 -426 268 6 c147 3 396 9 553 12 l287 6 7 414 7 414 414
0 414 0 0 -415 c0 -228 2 -415 5 -415 40 0 1089 41 1091 43 1 1 5 419 9 930
l7 927 -2033 0 c-2167 0 -2122 1 -2294 -47 -104 -29 -223 -80 -303 -129 -142
-89 -314 -273 -437 -469 l-55 -88 -2 319 -3 319 -75 27 c-120 42 -300 68 -430
61z"/>
<path d="M1160 4095 c101 -190 110 -212 126 -288 27 -126 -12 -225 -113 -284
-45 -26 -55 -28 -158 -27 -96 1 -122 5 -200 32 -49 17 -91 29 -94 27 -2 -3 -6
-229 -9 -502 l-5 -498 89 -33 c315 -115 658 -114 942 4 166 69 304 164 443
305 l87 88 6 -147 c11 -238 9 -235 139 -276 135 -43 215 -57 367 -63 417 -17
717 104 950 382 125 148 232 343 302 546 30 89 31 102 31 239 0 96 -6 172 -17
225 -21 98 -73 267 -90 291 -12 16 -71 20 -630 42 -339 14 -619 22 -622 19 -3
-3 30 -74 72 -158 74 -147 78 -158 82 -236 4 -69 1 -89 -17 -125 -52 -108
-138 -168 -241 -168 -94 0 -101 5 -94 59 9 72 -14 310 -41 415 -13 53 -36 122
-50 155 l-27 59 -111 6 c-120 6 -957 26 -1095 26 l-84 0 62 -115z"/>
<path d="M4635 3275 c-4 -465 -5 -849 -2 -852 3 -3 257 -2 563 2 l556 8 -7
821 c-4 451 -8 822 -9 823 -2 2 -1051 43 -1090 43 -2 0 -7 -380 -11 -845z"/>
<path d="M6580 3225 l0 -815 560 0 560 0 0 790 c0 625 -3 790 -12 790 -7 0
-256 11 -553 25 -297 14 -543 25 -547 25 -5 0 -8 -367 -8 -815z"/>
<path d="M7825 3209 c4 -426 8 -775 9 -775 0 -1 248 -5 550 -9 l548 -8 -7 734
c-4 404 -8 735 -9 737 -2 1 -223 20 -492 42 -269 22 -515 42 -548 46 l-58 6 7
-773z"/>
<path d="M9420 3146 l0 -716 546 0 546 0 -7 658 c-4 361 -8 658 -10 660 -1 1
-222 25 -491 52 -269 27 -510 52 -536 56 l-48 6 0 -716z"/>
<path d="M2418 2028 c-14 -20 -22 -22 -82 -20 l-66 3 0 -35 c0 -44 9 -66 26
-66 8 0 14 -4 14 -10 0 -16 37 -11 44 6 8 21 8 64 -1 64 -3 0 -15 -7 -25 -17
-10 -9 -18 -12 -18 -7 0 21 26 34 64 34 39 0 40 0 18 -16 -24 -16 -30 -59 -9
-67 6 -2 10 -7 7 -10 -8 -9 -120 -37 -147 -37 -13 0 -23 -4 -23 -10 0 -17 38
-30 70 -23 30 6 32 5 21 -15 -24 -45 -20 -47 131 -46 l143 1 -2 37 c-2 29 1
36 17 36 20 0 60 44 60 66 0 17 2 17 -50 -1 -71 -25 -141 -15 -105 15 14 11
16 11 13 -1 -2 -8 3 -14 10 -13 6 1 19 2 27 3 17 1 21 41 4 41 -7 0 -17 8 -24
17 -12 16 -14 16 -38 0 -21 -13 -26 -14 -30 -2 -3 7 -16 15 -29 18 -13 2 5 5
40 6 75 1 102 -10 102 -44 0 -18 5 -25 20 -25 14 0 21 9 26 35 11 58 1 69 -55
62 -61 -7 -88 0 -94 24 -7 26 -41 24 -59 -3z m32 -112 c-6 -6 -15 -4 -25 4
-23 19 -18 29 9 17 15 -7 21 -16 16 -21z m-34 -81 c-3 -32 -20 -49 -40 -42
-26 10 -19 42 12 54 15 6 28 11 29 12 1 1 0 -10 -1 -24z m122 -24 c-2 -10 -16
-17 -36 -19 -30 -3 -32 -1 -32 26 0 30 0 30 35 19 24 -7 35 -16 33 -26z"/>
<path d="M980 2020 c-9 -17 -19 -20 -68 -18 -53 3 -57 1 -60 -21 -4 -23 -2
-24 40 -17 l43 6 -38 -33 c-44 -38 -47 -51 -11 -44 23 4 94 -25 94 -39 0 -13
-110 -54 -142 -54 -39 0 -51 -13 -22 -24 42 -16 118 -6 169 23 l52 29 49 -39
c53 -42 86 -48 122 -23 31 21 28 40 -8 48 -59 11 -131 48 -126 63 4 8 6 20 6
27 0 10 9 11 40 3 45 -12 63 -3 34 17 -63 46 -63 45 -16 46 30 0 42 4 42 15 0
12 -14 15 -64 15 -56 0 -66 3 -71 20 -8 27 -51 27 -65 0z m62 -67 c2 -10 -2
-28 -9 -39 -12 -19 -17 -21 -43 -11 -28 11 -41 27 -21 27 5 0 13 9 16 20 8 25
52 27 57 3z"/>
<path d="M1697 2033 c-4 -3 -7 -21 -7 -39 l0 -33 -62 -3 c-52 -3 -63 -6 -66
-22 -4 -17 1 -18 57 -12 69 8 77 -1 39 -49 -25 -32 -74 -55 -118 -55 -20 0
-30 -5 -30 -15 0 -34 79 -46 129 -20 29 14 75 63 84 87 3 8 30 -13 69 -54 73
-76 95 -82 135 -42 29 29 26 34 -37 58 -25 9 -67 33 -95 54 l-50 37 68 3 c88
4 87 26 -1 30 l-62 3 0 33 c0 37 -32 61 -53 39z"/>
<path d="M3740 2011 c0 -26 -4 -30 -32 -33 -23 -2 -34 -9 -36 -22 -3 -16 0
-18 22 -12 41 10 33 -19 -14 -52 -21 -15 -38 -31 -36 -37 6 -20 48 -16 73 7
l25 23 -7 -67 -7 -68 26 0 c25 0 26 1 26 66 0 49 3 64 13 60 6 -3 20 -9 30
-12 14 -5 17 -13 12 -28 -4 -11 -9 -33 -12 -48 -5 -26 -3 -28 29 -28 23 0 45
10 71 31 l38 32 33 -32 c17 -17 39 -31 47 -31 15 0 49 30 49 43 0 4 -23 16
-51 28 -46 20 -49 24 -34 35 9 7 14 17 10 23 -3 6 0 11 7 11 9 0 13 17 13 58
l0 57 -95 6 c-52 3 -98 4 -102 2 -4 -2 -5 -34 -2 -71 l5 -67 -27 30 c-27 29
-27 30 -6 33 29 4 28 32 -1 32 -18 0 -23 5 -22 28 0 21 -5 28 -22 30 -20 3
-23 -1 -23 -27z m226 -21 c9 0 12 -4 9 -10 -8 -13 -72 -13 -80 -1 -6 11 23 21
43 15 8 -2 20 -4 28 -4z m14 -50 c0 -5 -21 -10 -46 -10 -27 0 -43 4 -39 10 3
6 24 10 46 10 21 0 39 -4 39 -10z m-18 -52 c-8 -8 -17 -8 -34 0 -22 10 -21 11
12 11 26 1 31 -2 22 -11z m-43 -41 c13 -16 5 -27 -21 -27 -11 0 -18 7 -18 20
0 23 22 27 39 7z"/>
<path d="M4537 2034 c-11 -12 -8 -23 13 -44 l20 -20 -31 0 c-24 0 -32 6 -40
30 -7 19 -18 30 -30 30 -25 0 -35 -26 -18 -46 11 -13 9 -14 -12 -9 -35 9 -52
-14 -43 -59 8 -44 28 -47 43 -6 l10 30 130 0 131 0 0 -26 c0 -35 30 -29 43 9
15 46 3 61 -44 53 -38 -6 -39 -5 -29 15 15 27 6 49 -19 49 -13 0 -23 -11 -31
-35 -15 -44 -38 -46 -42 -2 -2 23 -8 33 -23 35 -12 2 -24 0 -28 -4z"/>
<path d="M5303 2021 c-4 -17 -14 -19 -116 -18 -99 2 -112 0 -115 -15 -2 -12 3
-18 13 -18 15 0 16 -13 14 -107 -3 -101 -2 -108 17 -108 13 0 20 8 22 28 2 19
13 32 35 43 18 9 35 22 39 28 14 20 8 55 -9 65 -15 8 -16 12 -5 23 10 10 14 9
18 -10 4 -12 10 -22 14 -22 5 0 6 -9 3 -20 -4 -16 0 -20 21 -20 51 0 23 -49
-45 -78 l-44 -20 27 -12 c22 -11 32 -10 65 6 31 16 41 28 55 69 17 49 17 50
18 15 0 -48 23 -77 69 -91 50 -15 89 -5 103 26 15 34 5 41 -42 28 -50 -13 -84
2 -88 39 -3 22 1 27 24 30 15 2 29 9 32 16 3 9 -19 12 -85 12 -50 0 -92 2 -95
5 -3 3 -3 17 0 31 4 24 6 25 91 22 81 -3 86 -4 89 -25 2 -15 10 -23 23 -23 17
0 20 6 17 43 l-3 42 -51 -3 c-45 -3 -52 -1 -57 17 -7 27 -47 28 -54 2z m-144
-67 c-14 -18 -24 -11 -15 11 3 9 11 13 16 10 8 -5 7 -11 -1 -21z m16 -64 c8
-13 -14 -42 -26 -34 -5 3 -9 14 -9 25 0 20 24 26 35 9z"/>
<path d="M5967 2034 c-11 -12 -8 -23 13 -44 l20 -20 -31 0 c-24 0 -32 6 -40
30 -7 19 -18 30 -30 30 -25 0 -35 -26 -18 -46 11 -13 9 -14 -12 -9 -35 9 -52
-14 -43 -59 8 -44 28 -47 43 -6 l10 30 130 0 131 0 0 -26 c0 -35 30 -29 43 9
15 46 3 61 -44 53 -38 -6 -39 -5 -29 15 15 27 6 49 -19 49 -13 0 -23 -11 -31
-35 -15 -44 -38 -46 -42 -2 -2 23 -8 33 -23 35 -12 2 -24 0 -28 -4z"/>
<path d="M6687 2033 c-4 -3 -7 -21 -7 -40 0 -23 -5 -33 -15 -33 -9 0 -15 9
-15 25 0 19 -5 25 -22 25 -18 0 -29 -13 -50 -55 -24 -50 -24 -55 -8 -55 10 0
23 7 30 15 17 21 80 20 80 -1 0 -13 -7 -15 -34 -10 -24 5 -39 2 -50 -9 -27
-28 -19 -37 32 -33 41 3 47 1 47 -17 0 -18 -6 -20 -69 -17 -71 3 -106 -12
-106 -46 0 -12 9 -13 48 -8 125 17 169 17 235 2 102 -24 124 -22 142 15 9 17
15 32 13 34 -2 2 -33 0 -69 -5 -99 -12 -146 2 -119 35 8 9 30 15 56 15 74 0
52 24 -29 32 -49 5 -29 23 28 26 39 2 55 7 55 17 0 10 -16 15 -57 17 l-58 3
-3 38 c-3 31 -7 37 -26 37 -12 0 -26 -3 -29 -7z"/>
<path d="M7340 2029 c-14 -6 -38 -11 -55 -11 -16 0 -34 -3 -39 -6 -13 -7 16
-22 47 -22 44 0 31 -19 -15 -22 -31 -2 -44 -8 -46 -20 -3 -15 4 -18 32 -18 20
0 36 -4 36 -10 0 -5 -21 -25 -47 -45 -27 -20 -48 -42 -48 -48 0 -19 56 -10 80
13 32 30 37 25 29 -36 l-7 -56 29 4 c28 3 29 5 32 65 2 49 6 61 17 56 8 -3 15
-11 15 -18 0 -10 13 -12 55 -8 l55 6 0 -52 c0 -49 2 -52 23 -49 19 3 22 10 25
51 l3 48 34 -7 c27 -5 35 -2 44 14 16 31 15 32 -34 32 -50 0 -48 -3 -49 85 -1
57 -2 60 -26 60 -21 0 -25 -4 -22 -27 3 -33 0 -34 -34 -12 -18 12 -28 14 -36
6 -20 -20 -1 -42 37 -42 33 0 35 -2 35 -35 l0 -35 -53 0 c-40 0 -58 5 -70 18
-21 23 -21 32 -3 32 8 0 16 -7 20 -15 6 -17 81 -21 91 -5 3 6 0 10 -7 10 -8 0
-31 9 -53 20 -22 11 -45 20 -52 20 -7 0 -13 7 -13 15 0 8 7 15 16 15 20 0 14
34 -6 37 -8 1 -26 -3 -40 -8z"/>
<path d="M8020 2011 c0 -26 -4 -30 -32 -33 -23 -2 -34 -9 -36 -22 -4 -16 0
-18 32 -12 31 6 36 4 36 -12 0 -15 -9 -22 -36 -26 -26 -5 -34 -12 -32 -24 3
-13 12 -16 36 -14 32 3 33 2 30 -30 -3 -33 -4 -33 -50 -31 -52 1 -58 -5 -30
-30 21 -19 92 -23 109 -6 6 6 33 12 60 13 26 1 63 9 80 16 31 13 34 13 61 -13
33 -32 61 -34 92 -9 26 21 20 42 -11 42 -11 0 -35 7 -55 15 -30 12 -34 17 -25
34 18 33 13 62 -11 69 -19 6 -16 8 16 12 54 7 60 30 7 30 -36 0 -40 3 -43 28
-2 21 -8 27 -28 27 -20 0 -26 -6 -28 -27 -2 -16 -9 -28 -16 -28 -8 0 -28 -3
-45 -6 -30 -6 -31 -6 -31 30 0 32 -3 36 -25 36 -21 0 -25 -5 -25 -29z m132
-68 c-20 -4 -42 -37 -42 -63 0 -4 14 -13 32 -19 39 -14 29 -26 -29 -39 l-43
-10 0 38 c0 29 4 39 20 43 11 3 20 10 20 16 0 6 -9 11 -20 11 -11 0 -20 7 -20
15 0 12 12 15 53 14 28 -1 42 -4 29 -6z m68 -43 c0 -19 -29 -22 -52 -6 -22 16
-22 16 15 16 20 0 37 -5 37 -10z"/>
<path d="M8753 2002 c-17 -21 -52 -49 -77 -62 -55 -30 -54 -46 3 -43 l41 2 0
-58 c0 -37 5 -63 13 -70 39 -32 137 -19 158 21 15 28 4 34 -34 20 -67 -24
-101 -8 -95 45 2 22 8 28 27 28 32 0 38 -20 12 -41 -22 -20 -19 -34 8 -34 28
0 51 33 51 73 l0 37 -57 0 -56 0 23 25 23 24 38 -19 c21 -11 47 -20 59 -20 17
0 20 -6 20 -50 0 -43 3 -50 20 -50 18 0 20 7 20 75 0 68 -2 75 -20 75 -11 0
-20 -7 -20 -15 0 -24 -79 20 -90 50 -13 35 -32 31 -67 -13z"/>
<path d="M8997 2034 c-4 -4 -7 -53 -7 -109 0 -119 -11 -147 -54 -127 -34 15
-42 -1 -14 -27 25 -24 89 -28 107 -7 8 9 11 56 9 142 -3 107 -6 129 -18 132
-9 1 -19 0 -23 -4z"/>
<path d="M10127 2033 c-4 -3 -7 -23 -7 -44 0 -35 -2 -38 -27 -36 -23 2 -29 -3
-31 -22 -3 -22 -1 -23 27 -18 l31 7 0 -86 c0 -83 1 -85 23 -82 20 3 22 9 25
84 l3 80 56 12 c31 6 58 11 59 9 1 -1 -5 -18 -14 -37 l-16 -35 -4 28 c-2 15
-7 27 -11 27 -14 0 -51 -46 -51 -63 0 -20 30 -23 51 -4 7 6 -3 -6 -23 -28 -21
-23 -38 -45 -38 -49 0 -5 18 -6 40 -3 27 3 43 1 51 -9 15 -18 59 -18 86 1 12
8 27 32 33 53 17 50 26 58 40 32 8 -15 19 -20 38 -18 39 4 37 30 -3 56 -19 12
-35 30 -35 40 0 26 -20 42 -51 42 -24 0 -27 4 -25 33 1 28 -2 32 -24 32 -20 0
-26 -6 -30 -30 -5 -26 -9 -30 -32 -27 -14 2 -29 -2 -33 -7 -3 -6 -20 -11 -37
-11 -28 0 -30 2 -25 29 8 37 -23 67 -46 44z m236 -109 c9 -9 -20 -94 -39 -115
-17 -19 -54 -26 -54 -10 0 5 6 14 14 20 8 6 23 34 35 61 21 48 30 57 44 44z"/>
<path d="M10940 2015 c-21 -23 -113 -73 -162 -89 -10 -3 -18 -10 -18 -15 0
-18 49 -24 82 -10 20 8 63 12 116 10 53 -2 87 1 91 8 5 7 19 2 41 -14 37 -27
60 -31 91 -15 27 15 24 37 -8 45 -66 16 -171 68 -176 86 -7 26 -29 24 -57 -6z
m80 -65 c11 -7 0 -10 -40 -10 l-55 1 23 19 c24 20 30 19 72 -10z"/>
<path d="M9463 2016 c-4 -8 -21 -16 -37 -18 -36 -4 -46 -25 -15 -30 39 -5 33
-26 -8 -30 -27 -2 -39 -8 -41 -22 -4 -16 1 -17 47 -11 35 5 51 3 51 -4 0 -6
-14 -11 -30 -11 -32 0 -56 -30 -31 -38 8 -3 1 -16 -20 -38 -31 -32 -32 -34
-10 -34 12 0 36 7 53 16 24 12 29 21 25 40 -2 13 0 24 4 24 5 0 9 -23 9 -51 0
-47 2 -50 23 -47 19 3 22 10 25 51 2 26 7 47 12 47 5 0 7 -6 4 -14 -3 -8 0
-17 5 -21 6 -3 8 -11 5 -17 -8 -12 14 -28 39 -28 23 0 57 57 57 98 0 22 5 32
15 32 12 0 15 -16 15 -80 0 -79 0 -80 25 -80 24 0 25 2 25 75 l0 75 29 -6 c23
-5 32 -2 40 14 6 12 11 23 11 26 0 3 -35 6 -77 8 -50 2 -78 7 -81 15 -4 14 1
16 65 33 32 8 41 14 36 26 -4 12 -14 14 -37 10 -168 -29 -168 -29 -178 -12
-11 20 -44 21 -55 2z m45 -58 c-6 -18 -28 -21 -28 -4 0 9 7 16 16 16 9 0 14
-5 12 -12z m80 -5 c2 -8 -6 -13 -22 -13 -19 0 -24 4 -19 15 6 18 34 16 41 -2z
m2 -56 c0 -9 -12 -11 -40 -9 -22 2 -40 8 -40 13 0 5 18 9 40 9 26 0 40 -5 40
-13z"/>
<path d="M2953 2009 c-7 -7 -13 -22 -13 -32 0 -16 5 -18 28 -13 15 3 51 9 81
13 44 5 53 3 49 -8 -3 -9 -23 -15 -57 -17 l-52 -3 7 -92 c4 -51 8 -94 10 -96
3 -3 34 1 70 8 54 11 80 11 140 1 41 -7 76 -11 78 -9 2 2 5 45 7 94 l4 90 -52
3 c-38 2 -53 7 -53 18 0 17 8 17 82 2 55 -11 60 -11 80 10 12 12 18 25 14 29
-4 5 -98 9 -209 11 -154 3 -205 0 -214 -9z m194 -51 c-3 -7 -5 -2 -5 12 0 14
2 19 5 13 2 -7 2 -19 0 -25z m-49 -55 c4 -15 -36 -55 -48 -48 -16 10 -11 43 8
54 20 12 34 10 40 -6z m110 -71 c23 -2 42 -7 42 -11 0 -10 -115 -19 -165 -13
-37 4 -49 22 -14 22 36 0 58 19 65 58 l7 37 11 -45 c11 -44 12 -45 54 -48z
m41 69 c8 -14 7 -22 -4 -31 -21 -18 -45 -5 -45 25 0 31 34 35 49 6z"/>
<path d="M5273 1945 c-3 -9 -4 -18 -2 -20 7 -7 129 8 129 15 0 23 -118 27
-127 5z"/>
<path d="M4486 1915 c-24 -25 -20 -38 12 -32 15 3 35 0 46 -8 17 -13 7 -15
-80 -17 -96 -3 -99 -4 -102 -27 -4 -22 -2 -23 40 -18 166 23 201 19 144 -18
-17 -11 -36 -14 -63 -10 l-38 6 24 -20 c51 -46 161 -18 161 40 0 19 4 21 33
14 87 -18 110 -18 124 0 7 11 13 22 13 27 0 4 -40 8 -90 8 -53 0 -90 4 -90 10
0 6 12 10 26 10 21 0 25 4 22 23 -3 20 -9 22 -84 25 -65 2 -85 -1 -98 -13z
m104 -14 c0 -5 -9 -7 -20 -4 -11 3 -20 7 -20 9 0 2 9 4 20 4 11 0 20 -4 20 -9z"/>
<path d="M5916 1915 c-24 -25 -20 -38 12 -32 15 3 35 0 46 -8 17 -13 7 -15
-80 -17 -96 -3 -99 -4 -102 -27 -4 -22 -2 -23 40 -18 166 23 201 19 144 -18
-17 -11 -36 -14 -63 -10 l-38 6 24 -20 c51 -46 161 -18 161 40 0 19 4 21 33
14 87 -18 110 -18 124 0 7 11 13 22 13 27 0 4 -40 8 -90 8 -53 0 -90 4 -90 10
0 6 12 10 26 10 21 0 25 4 22 23 -3 20 -9 22 -84 25 -65 2 -85 -1 -98 -13z
m104 -14 c0 -5 -9 -7 -20 -4 -11 3 -20 7 -20 9 0 2 9 4 20 4 11 0 20 -4 20 -9z"/>
<path d="M10847 1883 c-4 -3 -7 -15 -7 -25 0 -16 5 -17 43 -11 38 6 41 5 29
-10 -8 -9 -22 -19 -33 -22 -10 -4 -19 -15 -19 -26 0 -14 7 -19 29 -19 15 0 42
-5 59 -11 25 -8 38 -8 62 5 19 9 43 13 61 9 39 -7 37 8 -6 45 l-34 31 47 3
c56 4 59 20 5 30 -49 9 -228 10 -236 1z m146 -86 c-7 -5 -23 -5 -34 -2 -21 7
-21 7 2 31 l22 24 12 -23 c9 -17 8 -24 -2 -30z"/>
</g>
</svg>
